<mxfile host="65bd71144e">
    <diagram id="IbItTFuZlibu-NrXDWV0" name="Страница 1">
        <mxGraphModel dx="1003" dy="1540" grid="1" gridSize="10" guides="1" tooltips="1" connect="1" arrows="1" fold="1" page="1" pageScale="1" pageWidth="827" pageHeight="1169" math="0" shadow="0">
            <root>
                <mxCell id="0"/>
                <mxCell id="1" parent="0"/>
                <mxCell id="22" style="edgeStyle=none;html=1;" parent="1" source="21" edge="1">
                    <mxGeometry relative="1" as="geometry">
                        <mxPoint x="280" y="-610" as="targetPoint"/>
                    </mxGeometry>
                </mxCell>
                <mxCell id="32" style="edgeStyle=orthogonalEdgeStyle;html=1;entryX=0.013;entryY=0.587;entryDx=0;entryDy=0;entryPerimeter=0;" parent="1" source="21" target="43" edge="1">
                    <mxGeometry relative="1" as="geometry">
                        <mxPoint x="310" y="-430" as="targetPoint"/>
                        <Array as="points">
                            <mxPoint x="180" y="-467"/>
                            <mxPoint x="210" y="-467"/>
                        </Array>
                    </mxGeometry>
                </mxCell>
                <mxCell id="21" value="User" style="html=1;shadow=0;dashed=0;shape=mxgraph.bootstrap.rrect;rSize=5;strokeColor=none;strokeWidth=1;fillColor=#0085FC;fontColor=#FFFFFF;whiteSpace=wrap;align=center;verticalAlign=middle;spacingLeft=0;fontStyle=0;fontSize=16;spacing=5;" parent="1" vertex="1">
                    <mxGeometry x="140" y="-630" width="80" height="40" as="geometry"/>
                </mxCell>
                <mxCell id="34" style="edgeStyle=orthogonalEdgeStyle;html=1;" parent="1" source="29" target="33" edge="1">
                    <mxGeometry relative="1" as="geometry"/>
                </mxCell>
                <mxCell id="38" style="edgeStyle=orthogonalEdgeStyle;html=1;strokeColor=#00FFFF;shadow=1;" parent="1" source="29" target="31" edge="1">
                    <mxGeometry relative="1" as="geometry"/>
                </mxCell>
                <mxCell id="29" value="Регистрация" style="html=1;shadow=0;dashed=0;shape=mxgraph.bootstrap.rrect;rSize=5;strokeColor=none;strokeWidth=1;fillColor=#F8F9FA;fontColor=#000000;whiteSpace=wrap;align=left;verticalAlign=middle;spacingLeft=0;fontStyle=1;fontSize=14;spacing=5;" parent="1" vertex="1">
                    <mxGeometry x="280" y="-630" width="100" height="40" as="geometry"/>
                </mxCell>
                <mxCell id="47" style="edgeStyle=orthogonalEdgeStyle;html=1;entryX=0.25;entryY=1;entryDx=0;entryDy=0;shadow=1;strokeColor=#00FFFF;fontSize=10;" parent="1" source="31" target="33" edge="1">
                    <mxGeometry relative="1" as="geometry"/>
                </mxCell>
                <mxCell id="31" value="&lt;font style=&quot;font-size: 10px;&quot;&gt;Авторизация на Госуслугах&lt;br&gt;(опционально)&lt;br&gt;&lt;/font&gt;" style="html=1;shadow=0;dashed=0;shape=mxgraph.bootstrap.rrect;rSize=5;strokeColor=none;strokeWidth=1;fillColor=#33FFFF;fontColor=#000000;whiteSpace=wrap;align=center;verticalAlign=middle;spacingLeft=0;fontStyle=1;fontSize=14;spacing=5;" parent="1" vertex="1">
                    <mxGeometry x="265" y="-560" width="130" height="50" as="geometry"/>
                </mxCell>
                <mxCell id="56" style="edgeStyle=orthogonalEdgeStyle;html=1;shadow=1;strokeColor=#F0F0F0;fontSize=12;fontColor=#000000;" parent="1" source="33" edge="1">
                    <mxGeometry relative="1" as="geometry">
                        <mxPoint x="570" y="-610" as="targetPoint"/>
                        <Array as="points">
                            <mxPoint x="570" y="-610"/>
                        </Array>
                    </mxGeometry>
                </mxCell>
                <mxCell id="33" value="Главное меню" style="rounded=1;whiteSpace=wrap;html=1;arcSize=50;strokeColor=none;strokeWidth=1;fillColor=#33A64C;fontColor=#FFFFFF;whiteSpace=wrap;align=center;verticalAlign=middle;spacingLeft=0;fontStyle=1;fontSize=14;spacing=10;" parent="1" vertex="1">
                    <mxGeometry x="440" y="-630" width="90" height="40" as="geometry"/>
                </mxCell>
                <mxCell id="41" style="edgeStyle=orthogonalEdgeStyle;html=1;entryX=0.5;entryY=1;entryDx=0;entryDy=0;" parent="1" source="43" target="33" edge="1">
                    <mxGeometry relative="1" as="geometry">
                        <mxPoint x="440" y="-470" as="targetPoint"/>
                    </mxGeometry>
                </mxCell>
                <mxCell id="42" style="edgeStyle=orthogonalEdgeStyle;html=1;strokeColor=#00FFFF;shadow=1;entryX=0.496;entryY=-0.012;entryDx=0;entryDy=0;entryPerimeter=0;" parent="1" source="43" target="46" edge="1">
                    <mxGeometry relative="1" as="geometry">
                        <mxPoint x="330" y="-410" as="targetPoint"/>
                    </mxGeometry>
                </mxCell>
                <mxCell id="43" value="Авторизация" style="html=1;shadow=0;dashed=0;shape=mxgraph.bootstrap.rrect;rSize=5;strokeColor=none;strokeWidth=1;fillColor=#F8F9FA;fontColor=#000000;whiteSpace=wrap;align=left;verticalAlign=middle;spacingLeft=0;fontStyle=1;fontSize=14;spacing=5;" parent="1" vertex="1">
                    <mxGeometry x="280" y="-490" width="100" height="40" as="geometry"/>
                </mxCell>
                <mxCell id="44" style="edgeStyle=orthogonalEdgeStyle;html=1;entryX=0.75;entryY=1;entryDx=0;entryDy=0;shadow=1;strokeColor=#00FFFF;fontSize=10;" parent="1" target="33" edge="1">
                    <mxGeometry relative="1" as="geometry">
                        <mxPoint x="485" y="-450" as="targetPoint"/>
                        <mxPoint x="380" y="-390.0000000000001" as="sourcePoint"/>
                    </mxGeometry>
                </mxCell>
                <mxCell id="46" value="&lt;font style=&quot;font-size: 10px;&quot;&gt;Авторизация на Госуслугах&lt;br&gt;(опционально)&lt;br&gt;&lt;/font&gt;" style="html=1;shadow=0;dashed=0;shape=mxgraph.bootstrap.rrect;rSize=5;strokeColor=none;strokeWidth=1;fillColor=#33FFFF;fontColor=#000000;whiteSpace=wrap;align=center;verticalAlign=middle;spacingLeft=0;fontStyle=1;fontSize=14;spacing=5;" parent="1" vertex="1">
                    <mxGeometry x="265" y="-420" width="130" height="50" as="geometry"/>
                </mxCell>
                <mxCell id="63" style="edgeStyle=orthogonalEdgeStyle;html=1;shadow=1;strokeColor=#F0F0F0;fontSize=12;fontColor=#000000;entryX=0.005;entryY=0.452;entryDx=0;entryDy=0;entryPerimeter=0;" parent="1" source="54" target="64" edge="1">
                    <mxGeometry relative="1" as="geometry">
                        <mxPoint x="770" y="-615" as="targetPoint"/>
                        <Array as="points">
                            <mxPoint x="750" y="-615"/>
                            <mxPoint x="750" y="-825"/>
                        </Array>
                    </mxGeometry>
                </mxCell>
                <mxCell id="54" value="&lt;p style=&quot;font-size: 12px;&quot;&gt;&lt;span style=&quot;background-color: initial;&quot;&gt;&lt;b&gt;1. Данные пользователя:&lt;/b&gt;&lt;/span&gt;&lt;/p&gt;" style="html=1;shadow=0;dashed=0;shape=mxgraph.bootstrap.rrect;rSize=5;strokeColor=#1CA5B8;strokeWidth=1;fillColor=#FFFF33;fontColor=#000000;whiteSpace=wrap;align=center;verticalAlign=middle;spacingLeft=0;fontStyle=0;fontSize=12;spacing=5;labelPosition=center;verticalLabelPosition=middle;" parent="1" vertex="1">
                    <mxGeometry x="570" y="-630" width="160" height="30" as="geometry"/>
                </mxCell>
                <mxCell id="72" style="edgeStyle=orthogonalEdgeStyle;html=1;entryX=0.009;entryY=0.485;entryDx=0;entryDy=0;entryPerimeter=0;shadow=1;strokeColor=#F0F0F0;fontSize=11;fontColor=#000000;" parent="1" source="57" target="65" edge="1">
                    <mxGeometry relative="1" as="geometry">
                        <Array as="points">
                            <mxPoint x="780" y="-585"/>
                            <mxPoint x="780" y="-675"/>
                        </Array>
                    </mxGeometry>
                </mxCell>
                <mxCell id="57" value="&lt;p style=&quot;&quot;&gt;2. Документы&lt;/p&gt;" style="html=1;shadow=0;dashed=0;shape=mxgraph.bootstrap.rrect;rSize=5;strokeColor=#1CA5B8;strokeWidth=1;fillColor=#FFFF33;fontColor=#000000;whiteSpace=wrap;align=center;verticalAlign=middle;spacingLeft=0;fontStyle=1;fontSize=12;spacing=5;labelPosition=center;verticalLabelPosition=middle;" parent="1" vertex="1">
                    <mxGeometry x="570" y="-600" width="160" height="30" as="geometry"/>
                </mxCell>
                <mxCell id="78" style="edgeStyle=orthogonalEdgeStyle;html=1;entryX=0.003;entryY=0.478;entryDx=0;entryDy=0;entryPerimeter=0;shadow=1;strokeColor=#F0F0F0;fontSize=11;fontColor=#000000;" parent="1" source="58" target="73" edge="1">
                    <mxGeometry relative="1" as="geometry">
                        <Array as="points">
                            <mxPoint x="790" y="-555"/>
                            <mxPoint x="790" y="-486"/>
                        </Array>
                    </mxGeometry>
                </mxCell>
                <mxCell id="58" value="&lt;div style=&quot;&quot;&gt;&lt;span style=&quot;background-color: initial;&quot;&gt;3. Собственность&lt;/span&gt;&lt;/div&gt;" style="html=1;shadow=0;dashed=0;shape=mxgraph.bootstrap.rrect;rSize=5;strokeColor=#1CA5B8;strokeWidth=1;fillColor=#FFFF33;fontColor=#000000;whiteSpace=wrap;align=center;verticalAlign=middle;spacingLeft=0;fontStyle=1;fontSize=12;spacing=5;labelPosition=center;verticalLabelPosition=middle;" parent="1" vertex="1">
                    <mxGeometry x="570" y="-570" width="160" height="30" as="geometry"/>
                </mxCell>
                <mxCell id="113" style="edgeStyle=orthogonalEdgeStyle;html=1;entryX=0.005;entryY=0.379;entryDx=0;entryDy=0;entryPerimeter=0;shadow=1;strokeColor=#F0F0F0;fontSize=11;fontColor=#000000;" parent="1" source="59" target="104" edge="1">
                    <mxGeometry relative="1" as="geometry">
                        <Array as="points">
                            <mxPoint x="780" y="-525"/>
                            <mxPoint x="780" y="-359"/>
                        </Array>
                    </mxGeometry>
                </mxCell>
                <mxCell id="59" value="&lt;div style=&quot;&quot;&gt;&lt;span style=&quot;background-color: initial;&quot;&gt;4. Образование&lt;/span&gt;&lt;/div&gt;" style="html=1;shadow=0;dashed=0;shape=mxgraph.bootstrap.rrect;rSize=5;strokeColor=#1CA5B8;strokeWidth=1;fillColor=#FFFF33;fontColor=#000000;whiteSpace=wrap;align=center;verticalAlign=middle;spacingLeft=0;fontStyle=1;fontSize=12;spacing=5;labelPosition=center;verticalLabelPosition=middle;" parent="1" vertex="1">
                    <mxGeometry x="570" y="-540" width="160" height="30" as="geometry"/>
                </mxCell>
                <mxCell id="123" style="edgeStyle=orthogonalEdgeStyle;html=1;entryX=-0.003;entryY=0.451;entryDx=0;entryDy=0;entryPerimeter=0;shadow=1;strokeColor=#F0F0F0;fontSize=11;fontColor=#000000;" parent="1" source="60" target="114" edge="1">
                    <mxGeometry relative="1" as="geometry">
                        <Array as="points">
                            <mxPoint x="760" y="-495"/>
                            <mxPoint x="760" y="-206"/>
                        </Array>
                    </mxGeometry>
                </mxCell>
                <mxCell id="60" value="&lt;div style=&quot;&quot;&gt;&lt;span style=&quot;background-color: initial;&quot;&gt;5. Планировщик&lt;/span&gt;&lt;/div&gt;" style="html=1;shadow=0;dashed=0;shape=mxgraph.bootstrap.rrect;rSize=5;strokeColor=#1CA5B8;strokeWidth=1;fillColor=#FFFF33;fontColor=#000000;whiteSpace=wrap;align=center;verticalAlign=middle;spacingLeft=0;fontStyle=1;fontSize=12;spacing=5;labelPosition=center;verticalLabelPosition=middle;" parent="1" vertex="1">
                    <mxGeometry x="570" y="-510" width="160" height="30" as="geometry"/>
                </mxCell>
                <mxCell id="135" style="edgeStyle=orthogonalEdgeStyle;html=1;entryX=0.512;entryY=-0.089;entryDx=0;entryDy=0;entryPerimeter=0;shadow=1;strokeColor=#F0F0F0;fontSize=11;fontColor=#000000;exitX=0.998;exitY=0.406;exitDx=0;exitDy=0;exitPerimeter=0;" parent="1" source="61" target="125" edge="1">
                    <mxGeometry relative="1" as="geometry"/>
                </mxCell>
                <mxCell id="61" value="&lt;div style=&quot;&quot;&gt;&lt;span style=&quot;background-color: initial;&quot;&gt;6. Контакты&lt;/span&gt;&lt;/div&gt;" style="html=1;shadow=0;dashed=0;shape=mxgraph.bootstrap.rrect;rSize=5;strokeColor=#1CA5B8;strokeWidth=1;fillColor=#FFFF33;fontColor=#000000;whiteSpace=wrap;align=center;verticalAlign=middle;spacingLeft=0;fontStyle=1;fontSize=12;spacing=5;labelPosition=center;verticalLabelPosition=middle;" parent="1" vertex="1">
                    <mxGeometry x="570" y="-480" width="160" height="30" as="geometry"/>
                </mxCell>
                <mxCell id="64" value="&lt;p style=&quot;font-size: 12px; font-weight: 400; text-align: center;&quot;&gt;&lt;span style=&quot;background-color: initial;&quot;&gt;&lt;b&gt;1. Данные пользователя:&lt;/b&gt;&lt;/span&gt;&lt;br&gt;&lt;/p&gt;&lt;div style=&quot;font-size: 12px; font-weight: 400;&quot;&gt;Фамилия&amp;nbsp;&lt;span style=&quot;background-color: initial;&quot;&gt;Имя&amp;nbsp;&lt;/span&gt;&lt;span style=&quot;background-color: initial;&quot;&gt;Отчество&lt;/span&gt;&lt;/div&gt;&lt;div style=&quot;font-size: 12px; font-weight: 400;&quot;&gt;Пол&lt;/div&gt;&lt;div style=&quot;font-size: 12px; font-weight: 400;&quot;&gt;Дата рождения&lt;/div&gt;&lt;div style=&quot;font-size: 12px; font-weight: 400;&quot;&gt;Место рождения&lt;/div&gt;&lt;div style=&quot;font-size: 12px; font-weight: 400;&quot;&gt;Место регистрации&lt;/div&gt;&lt;div style=&quot;font-size: 12px; font-weight: 400;&quot;&gt;&lt;span style=&quot;background-color: initial;&quot;&gt;Семейное&amp;nbsp;&lt;/span&gt;&lt;span style=&quot;background-color: initial;&quot;&gt;положение&lt;/span&gt;&lt;/div&gt;&lt;div style=&quot;font-size: 12px; font-weight: 400;&quot;&gt;&lt;span style=&quot;background-color: initial;&quot;&gt;Дети&lt;/span&gt;&lt;/div&gt;&lt;div style=&quot;font-size: 12px; font-weight: 400;&quot;&gt;&lt;span style=&quot;background-color: initial;&quot;&gt;&lt;br&gt;&lt;/span&gt;&lt;/div&gt;&lt;div style=&quot;font-size: 12px; font-weight: 400; text-align: right;&quot;&gt;&lt;span style=&quot;background-color: initial;&quot;&gt;&lt;b&gt;Изменить данные&lt;/b&gt;&lt;/span&gt;&lt;/div&gt;&lt;div style=&quot;font-size: 12px; font-weight: 400; text-align: right;&quot;&gt;&lt;span style=&quot;background-color: initial;&quot;&gt;&lt;b&gt;&lt;br&gt;&lt;/b&gt;&lt;/span&gt;&lt;/div&gt;&lt;div style=&quot;font-size: 12px; font-weight: 400; text-align: right;&quot;&gt;&lt;b style=&quot;background-color: initial;&quot;&gt;Обновить данные через Госуслуги (опционально)&lt;/b&gt;&lt;br&gt;&lt;/div&gt;" style="html=1;shadow=0;dashed=0;shape=mxgraph.bootstrap.rrect;rSize=5;strokeColor=none;strokeWidth=1;fillColor=#F8F9FA;fontColor=#000000;whiteSpace=wrap;align=left;verticalAlign=middle;spacingLeft=0;fontStyle=1;fontSize=11;spacing=5;" parent="1" vertex="1">
                    <mxGeometry x="810" y="-920" width="183" height="210" as="geometry"/>
                </mxCell>
                <mxCell id="65" value="&lt;p style=&quot;font-size: 12px; text-align: center; font-weight: 400;&quot;&gt;&lt;span style=&quot;background-color: initial;&quot;&gt;&lt;b&gt;2. Документы:&lt;/b&gt;&lt;/span&gt;&lt;/p&gt;" style="html=1;shadow=0;dashed=0;shape=mxgraph.bootstrap.rrect;rSize=5;strokeColor=none;strokeWidth=1;fillColor=#F8F9FA;fontColor=#000000;whiteSpace=wrap;align=left;verticalAlign=middle;spacingLeft=0;fontStyle=1;fontSize=11;spacing=5;" parent="1" vertex="1">
                    <mxGeometry x="810" y="-690" width="183" height="30" as="geometry"/>
                </mxCell>
                <mxCell id="82" style="edgeStyle=orthogonalEdgeStyle;html=1;shadow=1;strokeColor=#F0F0F0;fontSize=11;fontColor=#000000;" parent="1" source="66" edge="1">
                    <mxGeometry relative="1" as="geometry">
                        <mxPoint x="1030" y="-650" as="targetPoint"/>
                    </mxGeometry>
                </mxCell>
                <mxCell id="66" value="&lt;p style=&quot;font-size: 12px; text-align: center; font-weight: 400;&quot;&gt;&lt;span style=&quot;background-color: initial;&quot;&gt;Паспорт -&amp;gt;&lt;br&gt;&lt;/span&gt;&lt;/p&gt;" style="html=1;shadow=0;dashed=0;shape=mxgraph.bootstrap.rrect;rSize=5;strokeColor=none;strokeWidth=1;fillColor=#F8F9FA;fontColor=#000000;whiteSpace=wrap;align=left;verticalAlign=middle;spacingLeft=0;fontStyle=1;fontSize=11;spacing=5;" parent="1" vertex="1">
                    <mxGeometry x="810" y="-660" width="183" height="20" as="geometry"/>
                </mxCell>
                <mxCell id="90" style="edgeStyle=orthogonalEdgeStyle;html=1;shadow=1;strokeColor=#F0F0F0;fontSize=11;fontColor=#000000;" parent="1" source="67" target="88" edge="1">
                    <mxGeometry relative="1" as="geometry"/>
                </mxCell>
                <mxCell id="67" value="&lt;p style=&quot;text-align: right; font-size: 12px; font-weight: 400;&quot;&gt;&lt;b style=&quot;background-color: initial;&quot;&gt;Обновить данные через Госуслуги (опционально)&lt;/b&gt;&lt;br&gt;&lt;/p&gt;" style="html=1;shadow=0;dashed=0;shape=mxgraph.bootstrap.rrect;rSize=5;strokeColor=none;strokeWidth=1;fillColor=#F8F9FA;fontColor=#000000;whiteSpace=wrap;align=left;verticalAlign=middle;spacingLeft=0;fontStyle=1;fontSize=11;spacing=5;" parent="1" vertex="1">
                    <mxGeometry x="810" y="-560" width="183" height="40" as="geometry"/>
                </mxCell>
                <mxCell id="83" style="edgeStyle=orthogonalEdgeStyle;html=1;shadow=1;strokeColor=#F0F0F0;fontSize=11;fontColor=#000000;" parent="1" source="68" edge="1">
                    <mxGeometry relative="1" as="geometry">
                        <mxPoint x="1030" y="-630" as="targetPoint"/>
                    </mxGeometry>
                </mxCell>
                <mxCell id="68" value="&lt;p style=&quot;font-size: 12px; text-align: center; font-weight: 400;&quot;&gt;&lt;span style=&quot;background-color: initial;&quot;&gt;ИНН -&amp;gt;&lt;br&gt;&lt;/span&gt;&lt;/p&gt;" style="html=1;shadow=0;dashed=0;shape=mxgraph.bootstrap.rrect;rSize=5;strokeColor=none;strokeWidth=1;fillColor=#F8F9FA;fontColor=#000000;whiteSpace=wrap;align=left;verticalAlign=middle;spacingLeft=0;fontStyle=1;fontSize=11;spacing=5;" parent="1" vertex="1">
                    <mxGeometry x="810" y="-640" width="183" height="20" as="geometry"/>
                </mxCell>
                <mxCell id="84" style="edgeStyle=orthogonalEdgeStyle;html=1;shadow=1;strokeColor=#F0F0F0;fontSize=11;fontColor=#000000;" parent="1" source="69" edge="1">
                    <mxGeometry relative="1" as="geometry">
                        <mxPoint x="1030" y="-610" as="targetPoint"/>
                    </mxGeometry>
                </mxCell>
                <mxCell id="69" value="&lt;p style=&quot;font-size: 12px; text-align: center; font-weight: 400;&quot;&gt;&lt;span style=&quot;background-color: initial;&quot;&gt;СНИЛС -&amp;gt;&lt;br&gt;&lt;/span&gt;&lt;/p&gt;" style="html=1;shadow=0;dashed=0;shape=mxgraph.bootstrap.rrect;rSize=5;strokeColor=none;strokeWidth=1;fillColor=#F8F9FA;fontColor=#000000;whiteSpace=wrap;align=left;verticalAlign=middle;spacingLeft=0;fontStyle=1;fontSize=11;spacing=5;" parent="1" vertex="1">
                    <mxGeometry x="810" y="-620" width="183" height="20" as="geometry"/>
                </mxCell>
                <mxCell id="85" style="edgeStyle=orthogonalEdgeStyle;html=1;shadow=1;strokeColor=#F0F0F0;fontSize=11;fontColor=#000000;" parent="1" source="70" edge="1">
                    <mxGeometry relative="1" as="geometry">
                        <mxPoint x="1030" y="-590" as="targetPoint"/>
                    </mxGeometry>
                </mxCell>
                <mxCell id="70" value="&lt;p style=&quot;font-size: 12px; text-align: center; font-weight: 400;&quot;&gt;&lt;span style=&quot;background-color: initial;&quot;&gt;Водительское удостоверение&lt;br&gt;&lt;/span&gt;&lt;/p&gt;" style="html=1;shadow=0;dashed=0;shape=mxgraph.bootstrap.rrect;rSize=5;strokeColor=none;strokeWidth=1;fillColor=#F8F9FA;fontColor=#000000;whiteSpace=wrap;align=left;verticalAlign=middle;spacingLeft=0;fontStyle=1;fontSize=11;spacing=5;" parent="1" vertex="1">
                    <mxGeometry x="810" y="-600" width="183" height="20" as="geometry"/>
                </mxCell>
                <mxCell id="86" style="edgeStyle=orthogonalEdgeStyle;html=1;shadow=1;strokeColor=#F0F0F0;fontSize=11;fontColor=#000000;" parent="1" source="71" edge="1">
                    <mxGeometry relative="1" as="geometry">
                        <mxPoint x="1030" y="-570" as="targetPoint"/>
                    </mxGeometry>
                </mxCell>
                <mxCell id="71" value="&lt;p style=&quot;font-size: 12px; text-align: center; font-weight: 400;&quot;&gt;&lt;span style=&quot;background-color: initial;&quot;&gt;Загранпаспорт -&amp;gt;&lt;br&gt;&lt;/span&gt;&lt;/p&gt;" style="html=1;shadow=0;dashed=0;shape=mxgraph.bootstrap.rrect;rSize=5;strokeColor=none;strokeWidth=1;fillColor=#F8F9FA;fontColor=#000000;whiteSpace=wrap;align=left;verticalAlign=middle;spacingLeft=0;fontStyle=1;fontSize=11;spacing=5;" parent="1" vertex="1">
                    <mxGeometry x="810" y="-580" width="183" height="20" as="geometry"/>
                </mxCell>
                <mxCell id="73" value="&lt;p style=&quot;font-size: 12px; text-align: center; font-weight: 400;&quot;&gt;&lt;span style=&quot;background-color: initial;&quot;&gt;&lt;b&gt;3. Собственность:&lt;/b&gt;&lt;/span&gt;&lt;/p&gt;" style="html=1;shadow=0;dashed=0;shape=mxgraph.bootstrap.rrect;rSize=5;strokeColor=none;strokeWidth=1;fillColor=#F8F9FA;fontColor=#000000;whiteSpace=wrap;align=left;verticalAlign=middle;spacingLeft=0;fontStyle=1;fontSize=11;spacing=5;" parent="1" vertex="1">
                    <mxGeometry x="810" y="-500" width="183" height="30" as="geometry"/>
                </mxCell>
                <mxCell id="96" style="edgeStyle=orthogonalEdgeStyle;html=1;entryX=0.007;entryY=0.538;entryDx=0;entryDy=0;entryPerimeter=0;shadow=1;strokeColor=#F0F0F0;fontSize=11;fontColor=#000000;" parent="1" source="74" target="91" edge="1">
                    <mxGeometry relative="1" as="geometry">
                        <Array as="points">
                            <mxPoint x="1200" y="-460"/>
                            <mxPoint x="1200" y="-534"/>
                        </Array>
                    </mxGeometry>
                </mxCell>
                <mxCell id="74" value="&lt;p style=&quot;font-size: 12px; text-align: center; font-weight: 400;&quot;&gt;&lt;span style=&quot;background-color: initial;&quot;&gt;Недвижимость -&amp;gt;&lt;br&gt;&lt;/span&gt;&lt;/p&gt;" style="html=1;shadow=0;dashed=0;shape=mxgraph.bootstrap.rrect;rSize=5;strokeColor=none;strokeWidth=1;fillColor=#F8F9FA;fontColor=#000000;whiteSpace=wrap;align=left;verticalAlign=middle;spacingLeft=0;fontStyle=1;fontSize=11;spacing=5;" parent="1" vertex="1">
                    <mxGeometry x="810" y="-470" width="183" height="20" as="geometry"/>
                </mxCell>
                <mxCell id="97" style="edgeStyle=orthogonalEdgeStyle;html=1;shadow=1;strokeColor=#F0F0F0;fontSize=11;fontColor=#000000;" parent="1" source="75" target="79" edge="1">
                    <mxGeometry relative="1" as="geometry">
                        <Array as="points">
                            <mxPoint x="1200" y="-440"/>
                            <mxPoint x="1200" y="-425"/>
                        </Array>
                    </mxGeometry>
                </mxCell>
                <mxCell id="75" value="&lt;p style=&quot;font-size: 12px; text-align: center; font-weight: 400;&quot;&gt;&lt;span style=&quot;background-color: initial;&quot;&gt;Транспортные средства -&amp;gt;&lt;br&gt;&lt;/span&gt;&lt;/p&gt;" style="html=1;shadow=0;dashed=0;shape=mxgraph.bootstrap.rrect;rSize=5;strokeColor=none;strokeWidth=1;fillColor=#F8F9FA;fontColor=#000000;whiteSpace=wrap;align=left;verticalAlign=middle;spacingLeft=0;fontStyle=1;fontSize=11;spacing=5;" parent="1" vertex="1">
                    <mxGeometry x="810" y="-450" width="183" height="20" as="geometry"/>
                </mxCell>
                <mxCell id="77" value="&lt;p style=&quot;text-align: right; font-size: 12px; font-weight: 400;&quot;&gt;&lt;b style=&quot;background-color: initial;&quot;&gt;Обновить данные через Госуслуги (опционально)&lt;/b&gt;&lt;br&gt;&lt;/p&gt;" style="html=1;shadow=0;dashed=0;shape=mxgraph.bootstrap.rrect;rSize=5;strokeColor=none;strokeWidth=1;fillColor=#F8F9FA;fontColor=#000000;whiteSpace=wrap;align=left;verticalAlign=middle;spacingLeft=0;fontStyle=1;fontSize=11;spacing=5;" parent="1" vertex="1">
                    <mxGeometry x="810" y="-430" width="183" height="40" as="geometry"/>
                </mxCell>
                <mxCell id="79" value="&lt;font style=&quot;font-size: 10px;&quot;&gt;Добавить ТС&lt;br&gt;&lt;/font&gt;" style="html=1;shadow=0;dashed=0;shape=mxgraph.bootstrap.rrect;rSize=5;strokeColor=none;strokeWidth=1;fillColor=#33FFFF;fontColor=#000000;whiteSpace=wrap;align=center;verticalAlign=middle;spacingLeft=0;fontStyle=1;fontSize=14;spacing=5;" parent="1" vertex="1">
                    <mxGeometry x="1221" y="-440" width="140" height="30" as="geometry"/>
                </mxCell>
                <mxCell id="102" style="edgeStyle=orthogonalEdgeStyle;html=1;entryX=0.002;entryY=0.777;entryDx=0;entryDy=0;entryPerimeter=0;shadow=1;strokeColor=#F0F0F0;fontSize=11;fontColor=#000000;" parent="1" source="80" target="98" edge="1">
                    <mxGeometry relative="1" as="geometry"/>
                </mxCell>
                <mxCell id="80" value="&lt;font style=&quot;font-size: 10px;&quot;&gt;Транспортное средство 1&lt;br&gt;&lt;/font&gt;" style="html=1;shadow=0;dashed=0;shape=mxgraph.bootstrap.rrect;rSize=5;strokeColor=none;strokeWidth=1;fillColor=#33FFFF;fontColor=#000000;whiteSpace=wrap;align=center;verticalAlign=middle;spacingLeft=0;fontStyle=1;fontSize=14;spacing=5;" parent="1" vertex="1">
                    <mxGeometry x="1221" y="-410" width="140" height="30" as="geometry"/>
                </mxCell>
                <mxCell id="103" style="edgeStyle=orthogonalEdgeStyle;html=1;entryX=0;entryY=0.925;entryDx=0;entryDy=0;entryPerimeter=0;shadow=1;strokeColor=#F0F0F0;fontSize=11;fontColor=#000000;" parent="1" source="81" target="98" edge="1">
                    <mxGeometry relative="1" as="geometry"/>
                </mxCell>
                <mxCell id="81" value="&lt;font style=&quot;font-size: 10px;&quot;&gt;Транспортное средство 2&lt;br&gt;&lt;/font&gt;" style="html=1;shadow=0;dashed=0;shape=mxgraph.bootstrap.rrect;rSize=5;strokeColor=none;strokeWidth=1;fillColor=#33FFFF;fontColor=#000000;whiteSpace=wrap;align=center;verticalAlign=middle;spacingLeft=0;fontStyle=1;fontSize=14;spacing=5;" parent="1" vertex="1">
                    <mxGeometry x="1221" y="-380" width="140" height="30" as="geometry"/>
                </mxCell>
                <mxCell id="87" value="&lt;font style=&quot;font-size: 10px;&quot;&gt;1. Информация о документе&lt;br&gt;2. Скан документа (опционально)&lt;br&gt;3. Изменить данные&lt;br&gt;&lt;/font&gt;" style="html=1;shadow=0;dashed=0;shape=mxgraph.bootstrap.rrect;rSize=5;strokeColor=none;strokeWidth=1;fillColor=#33FFFF;fontColor=#000000;whiteSpace=wrap;align=center;verticalAlign=middle;spacingLeft=0;fontStyle=1;fontSize=14;spacing=5;" parent="1" vertex="1">
                    <mxGeometry x="1030" y="-660" width="150" height="100" as="geometry"/>
                </mxCell>
                <mxCell id="88" value="&lt;font style=&quot;font-size: 10px;&quot;&gt;Авторизация на Госуслугах&lt;br&gt;(обновление данных)&lt;br&gt;&lt;/font&gt;" style="html=1;shadow=0;dashed=0;shape=mxgraph.bootstrap.rrect;rSize=5;strokeColor=none;strokeWidth=1;fillColor=#33FFFF;fontColor=#000000;whiteSpace=wrap;align=center;verticalAlign=middle;spacingLeft=0;fontStyle=1;fontSize=14;spacing=5;" parent="1" vertex="1">
                    <mxGeometry x="1032.5" y="-550" width="147.5" height="50" as="geometry"/>
                </mxCell>
                <mxCell id="91" value="&lt;font style=&quot;font-size: 10px;&quot;&gt;Добавить объект&lt;br&gt;&lt;/font&gt;" style="html=1;shadow=0;dashed=0;shape=mxgraph.bootstrap.rrect;rSize=5;strokeColor=none;strokeWidth=1;fillColor=#33FFFF;fontColor=#000000;whiteSpace=wrap;align=center;verticalAlign=middle;spacingLeft=0;fontStyle=1;fontSize=14;spacing=5;" parent="1" vertex="1">
                    <mxGeometry x="1221" y="-550" width="140" height="30" as="geometry"/>
                </mxCell>
                <mxCell id="99" style="edgeStyle=orthogonalEdgeStyle;html=1;entryX=0;entryY=0.225;entryDx=0;entryDy=0;entryPerimeter=0;shadow=1;strokeColor=#F0F0F0;fontSize=11;fontColor=#000000;" parent="1" source="92" target="98" edge="1">
                    <mxGeometry relative="1" as="geometry"/>
                </mxCell>
                <mxCell id="92" value="&lt;font style=&quot;font-size: 10px;&quot;&gt;Объект 1&lt;br&gt;&lt;/font&gt;" style="html=1;shadow=0;dashed=0;shape=mxgraph.bootstrap.rrect;rSize=5;strokeColor=none;strokeWidth=1;fillColor=#33FFFF;fontColor=#000000;whiteSpace=wrap;align=center;verticalAlign=middle;spacingLeft=0;fontStyle=1;fontSize=14;spacing=5;" parent="1" vertex="1">
                    <mxGeometry x="1221" y="-520" width="140" height="30" as="geometry"/>
                </mxCell>
                <mxCell id="100" style="edgeStyle=orthogonalEdgeStyle;html=1;entryX=0;entryY=0.375;entryDx=0;entryDy=0;entryPerimeter=0;shadow=1;strokeColor=#F0F0F0;fontSize=11;fontColor=#000000;" parent="1" source="93" target="98" edge="1">
                    <mxGeometry relative="1" as="geometry"/>
                </mxCell>
                <mxCell id="93" value="&lt;font style=&quot;font-size: 10px;&quot;&gt;Объект 2&lt;br&gt;&lt;/font&gt;" style="html=1;shadow=0;dashed=0;shape=mxgraph.bootstrap.rrect;rSize=5;strokeColor=none;strokeWidth=1;fillColor=#33FFFF;fontColor=#000000;whiteSpace=wrap;align=center;verticalAlign=middle;spacingLeft=0;fontStyle=1;fontSize=14;spacing=5;" parent="1" vertex="1">
                    <mxGeometry x="1221" y="-490" width="140" height="30" as="geometry"/>
                </mxCell>
                <mxCell id="94" style="edgeStyle=orthogonalEdgeStyle;html=1;shadow=1;strokeColor=#F0F0F0;fontSize=11;fontColor=#000000;" parent="1" target="95" edge="1">
                    <mxGeometry relative="1" as="geometry">
                        <mxPoint x="993" y="-409.95652173913027" as="sourcePoint"/>
                    </mxGeometry>
                </mxCell>
                <mxCell id="95" value="&lt;font style=&quot;font-size: 10px;&quot;&gt;Авторизация на Госуслугах&lt;br&gt;(обновление данных)&lt;br&gt;&lt;/font&gt;" style="html=1;shadow=0;dashed=0;shape=mxgraph.bootstrap.rrect;rSize=5;strokeColor=none;strokeWidth=1;fillColor=#33FFFF;fontColor=#000000;whiteSpace=wrap;align=center;verticalAlign=middle;spacingLeft=0;fontStyle=1;fontSize=14;spacing=5;" parent="1" vertex="1">
                    <mxGeometry x="1032.5" y="-420" width="147.5" height="50" as="geometry"/>
                </mxCell>
                <mxCell id="98" value="&lt;font style=&quot;font-size: 10px;&quot;&gt;1. Информация об объекте собственнсоти&lt;br&gt;2. Скан документов о собственности&lt;br&gt;3. Изменить данные&lt;br&gt;4. Удалить объект собственности&lt;br&gt;&lt;/font&gt;" style="html=1;shadow=0;dashed=0;shape=mxgraph.bootstrap.rrect;rSize=5;strokeColor=none;strokeWidth=1;fillColor=#33FFFF;fontColor=#000000;whiteSpace=wrap;align=center;verticalAlign=middle;spacingLeft=0;fontStyle=1;fontSize=14;spacing=5;" parent="1" vertex="1">
                    <mxGeometry x="1400" y="-550" width="140" height="200" as="geometry"/>
                </mxCell>
                <mxCell id="104" value="&lt;p style=&quot;font-size: 12px; text-align: center; font-weight: 400;&quot;&gt;&lt;span style=&quot;background-color: initial;&quot;&gt;&lt;b&gt;4. Образование:&lt;/b&gt;&lt;/span&gt;&lt;/p&gt;" style="html=1;shadow=0;dashed=0;shape=mxgraph.bootstrap.rrect;rSize=5;strokeColor=none;strokeWidth=1;fillColor=#F8F9FA;fontColor=#000000;whiteSpace=wrap;align=left;verticalAlign=middle;spacingLeft=0;fontStyle=1;fontSize=11;spacing=5;" parent="1" vertex="1">
                    <mxGeometry x="810" y="-370" width="183" height="30" as="geometry"/>
                </mxCell>
                <mxCell id="111" style="edgeStyle=orthogonalEdgeStyle;html=1;shadow=1;strokeColor=#F0F0F0;fontSize=11;fontColor=#000000;" parent="1" source="105" target="108" edge="1">
                    <mxGeometry relative="1" as="geometry"/>
                </mxCell>
                <mxCell id="105" value="&lt;p style=&quot;font-size: 12px; text-align: center; font-weight: 400;&quot;&gt;&lt;span style=&quot;background-color: initial;&quot;&gt;Аттестат -&amp;gt;&lt;br&gt;&lt;/span&gt;&lt;/p&gt;" style="html=1;shadow=0;dashed=0;shape=mxgraph.bootstrap.rrect;rSize=5;strokeColor=none;strokeWidth=1;fillColor=#F8F9FA;fontColor=#000000;whiteSpace=wrap;align=left;verticalAlign=middle;spacingLeft=0;fontStyle=1;fontSize=11;spacing=5;" parent="1" vertex="1">
                    <mxGeometry x="810" y="-340" width="183" height="20" as="geometry"/>
                </mxCell>
                <mxCell id="112" style="edgeStyle=orthogonalEdgeStyle;html=1;entryX=0;entryY=0.808;entryDx=0;entryDy=0;entryPerimeter=0;shadow=1;strokeColor=#F0F0F0;fontSize=11;fontColor=#000000;" parent="1" source="106" target="108" edge="1">
                    <mxGeometry relative="1" as="geometry"/>
                </mxCell>
                <mxCell id="106" value="&lt;p style=&quot;font-size: 12px; text-align: center; font-weight: 400;&quot;&gt;&lt;span style=&quot;background-color: initial;&quot;&gt;Диплом -&amp;gt;&lt;br&gt;&lt;/span&gt;&lt;/p&gt;" style="html=1;shadow=0;dashed=0;shape=mxgraph.bootstrap.rrect;rSize=5;strokeColor=none;strokeWidth=1;fillColor=#F8F9FA;fontColor=#000000;whiteSpace=wrap;align=left;verticalAlign=middle;spacingLeft=0;fontStyle=1;fontSize=11;spacing=5;" parent="1" vertex="1">
                    <mxGeometry x="810" y="-320" width="183" height="20" as="geometry"/>
                </mxCell>
                <mxCell id="107" value="&lt;p style=&quot;text-align: right; font-size: 12px; font-weight: 400;&quot;&gt;&lt;b style=&quot;background-color: initial;&quot;&gt;Обновить данные через Госуслуги (опционально)&lt;/b&gt;&lt;br&gt;&lt;/p&gt;" style="html=1;shadow=0;dashed=0;shape=mxgraph.bootstrap.rrect;rSize=5;strokeColor=none;strokeWidth=1;fillColor=#F8F9FA;fontColor=#000000;whiteSpace=wrap;align=left;verticalAlign=middle;spacingLeft=0;fontStyle=1;fontSize=11;spacing=5;" parent="1" vertex="1">
                    <mxGeometry x="810" y="-300" width="183" height="40" as="geometry"/>
                </mxCell>
                <mxCell id="108" value="&lt;font style=&quot;font-size: 10px;&quot;&gt;1. Информация о документе&lt;br&gt;2. Скан документа (опционально)&lt;br&gt;3. Изменить данные&lt;br&gt;&lt;/font&gt;" style="html=1;shadow=0;dashed=0;shape=mxgraph.bootstrap.rrect;rSize=5;strokeColor=none;strokeWidth=1;fillColor=#33FFFF;fontColor=#000000;whiteSpace=wrap;align=center;verticalAlign=middle;spacingLeft=0;fontStyle=1;fontSize=14;spacing=5;" parent="1" vertex="1">
                    <mxGeometry x="1030" y="-362.5" width="150" height="65" as="geometry"/>
                </mxCell>
                <mxCell id="109" style="edgeStyle=orthogonalEdgeStyle;html=1;shadow=1;strokeColor=#F0F0F0;fontSize=11;fontColor=#000000;" parent="1" target="110" edge="1">
                    <mxGeometry relative="1" as="geometry">
                        <mxPoint x="993.0000000000002" y="-279.95652173913027" as="sourcePoint"/>
                    </mxGeometry>
                </mxCell>
                <mxCell id="110" value="&lt;font style=&quot;font-size: 10px;&quot;&gt;Авторизация на Госуслугах&lt;br&gt;(обновление данных)&lt;br&gt;&lt;/font&gt;" style="html=1;shadow=0;dashed=0;shape=mxgraph.bootstrap.rrect;rSize=5;strokeColor=none;strokeWidth=1;fillColor=#33FFFF;fontColor=#000000;whiteSpace=wrap;align=center;verticalAlign=middle;spacingLeft=0;fontStyle=1;fontSize=14;spacing=5;" parent="1" vertex="1">
                    <mxGeometry x="1032.5" y="-290" width="147.5" height="50" as="geometry"/>
                </mxCell>
                <mxCell id="114" value="&lt;p style=&quot;font-size: 12px; text-align: center; font-weight: 400;&quot;&gt;&lt;span style=&quot;background-color: initial;&quot;&gt;&lt;b&gt;5. Планировщик&lt;/b&gt;&lt;/span&gt;&lt;/p&gt;" style="html=1;shadow=0;dashed=0;shape=mxgraph.bootstrap.rrect;rSize=5;strokeColor=none;strokeWidth=1;fillColor=#F8F9FA;fontColor=#000000;whiteSpace=wrap;align=left;verticalAlign=middle;spacingLeft=0;fontStyle=1;fontSize=11;spacing=5;" parent="1" vertex="1">
                    <mxGeometry x="810" y="-220" width="183" height="30" as="geometry"/>
                </mxCell>
                <mxCell id="115" style="edgeStyle=orthogonalEdgeStyle;html=1;shadow=1;strokeColor=#F0F0F0;fontSize=11;fontColor=#000000;" parent="1" source="116" target="120" edge="1">
                    <mxGeometry relative="1" as="geometry"/>
                </mxCell>
                <mxCell id="116" value="&lt;p style=&quot;font-size: 12px; text-align: center; font-weight: 400;&quot;&gt;&lt;span style=&quot;background-color: initial;&quot;&gt;Поиск события&lt;br&gt;&lt;/span&gt;&lt;/p&gt;" style="html=1;shadow=0;dashed=0;shape=mxgraph.bootstrap.rrect;rSize=5;strokeColor=none;strokeWidth=1;fillColor=#CCFFFF;fontColor=#000000;whiteSpace=wrap;align=left;verticalAlign=middle;spacingLeft=0;fontStyle=1;fontSize=11;spacing=5;" parent="1" vertex="1">
                    <mxGeometry x="810" y="-190" width="183" height="20" as="geometry"/>
                </mxCell>
                <mxCell id="117" style="edgeStyle=orthogonalEdgeStyle;html=1;entryX=0;entryY=0.808;entryDx=0;entryDy=0;entryPerimeter=0;shadow=1;strokeColor=#F0F0F0;fontSize=11;fontColor=#000000;" parent="1" source="118" target="120" edge="1">
                    <mxGeometry relative="1" as="geometry"/>
                </mxCell>
                <mxCell id="118" value="&lt;p style=&quot;font-size: 12px; text-align: center; font-weight: 400;&quot;&gt;&lt;span style=&quot;background-color: initial;&quot;&gt;Событие 1&lt;br&gt;&lt;/span&gt;&lt;/p&gt;" style="html=1;shadow=0;dashed=0;shape=mxgraph.bootstrap.rrect;rSize=5;strokeColor=none;strokeWidth=1;fillColor=#F8F9FA;fontColor=#000000;whiteSpace=wrap;align=left;verticalAlign=middle;spacingLeft=0;fontStyle=1;fontSize=11;spacing=5;" parent="1" vertex="1">
                    <mxGeometry x="810" y="-170" width="183" height="20" as="geometry"/>
                </mxCell>
                <mxCell id="120" value="&lt;font style=&quot;font-size: 10px;&quot;&gt;1. Информация о событии&lt;br&gt;2. Изменить данные&lt;br&gt;3. Удалить событие&lt;br&gt;&lt;/font&gt;" style="html=1;shadow=0;dashed=0;shape=mxgraph.bootstrap.rrect;rSize=5;strokeColor=none;strokeWidth=1;fillColor=#33FFFF;fontColor=#000000;whiteSpace=wrap;align=center;verticalAlign=middle;spacingLeft=0;fontStyle=1;fontSize=14;spacing=5;" parent="1" vertex="1">
                    <mxGeometry x="1030" y="-212.5" width="150" height="65" as="geometry"/>
                </mxCell>
                <mxCell id="124" value="&lt;p style=&quot;font-size: 12px; text-align: center; font-weight: 400;&quot;&gt;&lt;span style=&quot;background-color: initial;&quot;&gt;Событие 2&lt;br&gt;&lt;/span&gt;&lt;/p&gt;" style="html=1;shadow=0;dashed=0;shape=mxgraph.bootstrap.rrect;rSize=5;strokeColor=none;strokeWidth=1;fillColor=#F8F9FA;fontColor=#000000;whiteSpace=wrap;align=left;verticalAlign=middle;spacingLeft=0;fontStyle=1;fontSize=11;spacing=5;" parent="1" vertex="1">
                    <mxGeometry x="810" y="-150" width="183" height="20" as="geometry"/>
                </mxCell>
                <mxCell id="125" value="&lt;p style=&quot;font-size: 12px; text-align: center; font-weight: 400;&quot;&gt;&lt;span style=&quot;background-color: initial;&quot;&gt;&lt;b&gt;6. Контакты&lt;/b&gt;&lt;/span&gt;&lt;/p&gt;" style="html=1;shadow=0;dashed=0;shape=mxgraph.bootstrap.rrect;rSize=5;strokeColor=none;strokeWidth=1;fillColor=#F8F9FA;fontColor=#000000;whiteSpace=wrap;align=left;verticalAlign=middle;spacingLeft=0;fontStyle=1;fontSize=11;spacing=5;" parent="1" vertex="1">
                    <mxGeometry x="510" y="-300" width="183" height="30" as="geometry"/>
                </mxCell>
                <mxCell id="126" value="&lt;p style=&quot;font-size: 12px; text-align: center; font-weight: 400;&quot;&gt;&lt;span style=&quot;background-color: initial;&quot;&gt;Поиск контакта&lt;br&gt;&lt;/span&gt;&lt;/p&gt;" style="html=1;shadow=0;dashed=0;shape=mxgraph.bootstrap.rrect;rSize=5;strokeColor=none;strokeWidth=1;fillColor=#CCFFFF;fontColor=#000000;whiteSpace=wrap;align=left;verticalAlign=middle;spacingLeft=0;fontStyle=1;fontSize=11;spacing=5;" parent="1" vertex="1">
                    <mxGeometry x="510" y="-270" width="183" height="20" as="geometry"/>
                </mxCell>
                <mxCell id="132" style="edgeStyle=orthogonalEdgeStyle;html=1;shadow=1;strokeColor=#F0F0F0;fontSize=11;fontColor=#000000;entryX=0.998;entryY=0.521;entryDx=0;entryDy=0;entryPerimeter=0;" parent="1" source="127" target="129" edge="1">
                    <mxGeometry relative="1" as="geometry">
                        <mxPoint x="663" y="-130" as="targetPoint"/>
                        <Array as="points">
                            <mxPoint x="713" y="-210"/>
                            <mxPoint x="713" y="-105"/>
                            <mxPoint x="663" y="-105"/>
                            <mxPoint x="663" y="-104"/>
                        </Array>
                    </mxGeometry>
                </mxCell>
                <mxCell id="127" value="&lt;p style=&quot;font-size: 12px; text-align: center; font-weight: 400;&quot;&gt;&lt;span style=&quot;background-color: initial;&quot;&gt;Контакт 1&lt;br&gt;&lt;/span&gt;&lt;/p&gt;" style="html=1;shadow=0;dashed=0;shape=mxgraph.bootstrap.rrect;rSize=5;strokeColor=none;strokeWidth=1;fillColor=#F8F9FA;fontColor=#000000;whiteSpace=wrap;align=left;verticalAlign=middle;spacingLeft=0;fontStyle=1;fontSize=11;spacing=5;" parent="1" vertex="1">
                    <mxGeometry x="510" y="-220" width="183" height="20" as="geometry"/>
                </mxCell>
                <mxCell id="133" style="edgeStyle=orthogonalEdgeStyle;html=1;entryX=0.996;entryY=0.299;entryDx=0;entryDy=0;entryPerimeter=0;shadow=1;strokeColor=#F0F0F0;fontSize=11;fontColor=#000000;" parent="1" source="128" target="129" edge="1">
                    <mxGeometry relative="1" as="geometry">
                        <Array as="points">
                            <mxPoint x="683" y="-118"/>
                        </Array>
                    </mxGeometry>
                </mxCell>
                <mxCell id="128" value="&lt;p style=&quot;font-size: 12px; text-align: center; font-weight: 400;&quot;&gt;&lt;span style=&quot;background-color: initial;&quot;&gt;Контакт 2&lt;br&gt;&lt;/span&gt;&lt;/p&gt;" style="html=1;shadow=0;dashed=0;shape=mxgraph.bootstrap.rrect;rSize=5;strokeColor=none;strokeWidth=1;fillColor=#F8F9FA;fontColor=#000000;whiteSpace=wrap;align=left;verticalAlign=middle;spacingLeft=0;fontStyle=1;fontSize=11;spacing=5;" parent="1" vertex="1">
                    <mxGeometry x="510" y="-200" width="183" height="20" as="geometry"/>
                </mxCell>
                <mxCell id="129" value="&lt;font style=&quot;font-size: 10px;&quot;&gt;1. Информация о контакте&lt;br&gt;2. Изменить контакт&lt;br&gt;3. Удалить контакт&lt;br&gt;&lt;/font&gt;" style="html=1;shadow=0;dashed=0;shape=mxgraph.bootstrap.rrect;rSize=5;strokeColor=none;strokeWidth=1;fillColor=#33FFFF;fontColor=#000000;whiteSpace=wrap;align=center;verticalAlign=middle;spacingLeft=0;fontStyle=1;fontSize=14;spacing=5;" parent="1" vertex="1">
                    <mxGeometry x="510" y="-137.5" width="150" height="65" as="geometry"/>
                </mxCell>
                <mxCell id="134" value="Импортировать контакты (опционально)" style="html=1;shadow=0;dashed=0;shape=mxgraph.bootstrap.rrect;rSize=5;strokeColor=none;strokeWidth=1;fillColor=#FFFF99;fontColor=#000000;whiteSpace=wrap;align=left;verticalAlign=middle;spacingLeft=0;fontStyle=1;fontSize=11;spacing=5;" parent="1" vertex="1">
                    <mxGeometry x="510" y="-250" width="183" height="30" as="geometry"/>
                </mxCell>
                <mxCell id="145" value="&lt;font style=&quot;font-size: 24px;&quot;&gt;UI-диаграмма приложения-помощника&lt;/font&gt;" style="html=1;shadow=0;dashed=0;shape=mxgraph.bootstrap.rrect;rSize=5;strokeColor=none;strokeWidth=1;fillColor=#6C767D;fontColor=#FFFFFF;whiteSpace=wrap;align=left;verticalAlign=middle;spacingLeft=10;fontStyle=1;fontSize=18;" parent="1" vertex="1">
                    <mxGeometry x="580" y="-1060" width="490" height="40" as="geometry"/>
                </mxCell>
            </root>
        </mxGraphModel>
    </diagram>
</mxfile>